PathFileType	4	(X/Y/Z)	Patient4_TMGait_0pt3_02_right_18.trc.trc
DataRate	CameraRate	NumFrames	NumMarkers	Units	OrigDataRate	OrigDataStartFrame	OrigNumFrames
48.780487804878	48.780487804878	4	33	mm	48.780487804878	18	       141
Frame#	Time	Sacral			L.Shoulder			Chest			R.Shoulder			Neck			R.ASIS			L.ASIS			R.Thigh.Superior			R.Thigh.Lateral			R.Thigh.Inferior			R.Patella			L.Thigh.Superior			L.Thigh.Lateral			L.Thigh.Inferior			L.Patella			L.Shank.Superior			L.Shank.Lateral			L.Shank.Inferior			R.Shank.Superior			R.Shank.Lateral			R.Shank.Inferior			R.Heel			R.Midfoot.Superior			R.Midfoot.Lateral			R.Toe			L.Heel			L.Midfoot.Lateral			L.Midfoot.Superior			L.Toe			L.Elbow			L.Wrist			R.Elbow			R.Wrist			
		X1	Y1	Z1	X2	Y2	Z2	X3	Y3	Z3	X4	Y4	Z4	X5	Y5	Z5	X6	Y6	Z6	X7	Y7	Z7	X8	Y8	Z8	X9	Y9	Z9	X10	Y10	Z10	X11	Y11	Z11	X12	Y12	Z12	X13	Y13	Z13	X14	Y14	Z14	X15	Y15	Z15	X16	Y16	Z16	X17	Y17	Z17	X18	Y18	Z18	X19	Y19	Z19	X20	Y20	Z20	X21	Y21	Z21	X22	Y22	Z22	X23	Y23	Z23	X24	Y24	Z24	X25	Y25	Z25	X26	Y26	Z26	X27	Y27	Z27	X28	Y28	Z28	X29	Y29	Z29	X30	Y30	Z30	X31	Y31	Z31	X32	Y32	Z32	X33	Y33	Z33	

18	34.308500000000	679.182110147471	1014.295127863010	400.497624241851	932.261679519940	1439.893383102662	278.834397141190	984.039089785962	1358.454687768194	455.828793478592	864.522130926992	1434.083458789147	606.483573784639	874.783702173874	1494.602164712534	431.042176942927	883.386274292655	941.826907991279	557.978585750532	917.678425529015	960.949415066684	285.525534236227	956.631484393042	768.614615758156	531.781009085393	906.653361733885	649.827515246220	602.670400299762	995.985812384352	606.929063427756	526.500079507086	1024.055121824674	517.778331631668	549.077185687664	931.682852450471	735.391008296805	319.492302775708	834.119393423150	625.811814560579	257.250463063788	901.506076313779	544.113700730620	331.454891237467	892.191294727077	476.038268949278	343.543994435581	859.463712304391	407.233993890950	337.019444359885	762.504095390417	298.163162527999	287.773407179595	796.639467461627	187.467421323507	368.479551646335	990.959307407486	430.763298985902	560.731738708428	914.284104003240	332.661038259318	626.124754384066	966.677802654743	233.156091714273	579.709043939115	840.086790410670	62.193947938151	556.163524309855	1012.050982551366	116.742165766024	598.485480552537	924.051447966577	49.228827598441	629.714056298974	1130.422025300229	64.880141370640	622.187810014692	655.311416520575	38.967142395518	413.899589700962	730.174673585353	35.501276201154	334.282095586277	814.777683389968	95.172568857022	361.809481394632	942.613723288450	40.076498826739	334.740739351626	1064.944933570167	1158.803318104309	101.920630641339	1316.700617733708	1114.443172300193	149.719602939985	673.891154662971	1136.485670934285	670.000671647743	624.421432499538	879.428426494478	673.083477368310	
19	34.329000000000	679.265221707245	1013.268811014562	401.366984319973	932.663675854357	1439.008017393081	282.005730007253	983.243893327495	1357.595572905388	459.374047083870	862.628374509014	1433.397220959067	609.131157811390	874.096088596660	1493.747930332835	433.743596959968	881.989602979973	940.459460577382	560.455435718186	918.471630987038	960.135914703914	288.165246512391	953.428844252945	765.490045304285	536.132794630934	900.142434286946	646.965196719879	605.666857489242	990.447850612672	603.764472110291	530.852155095986	1017.922970148832	517.155301623816	552.045558242142	930.324625620872	734.201594077681	321.776105469915	831.692589696692	625.665401367628	258.319819674181	897.534654700788	543.095806998446	332.470220720660	887.279298030306	475.225061907894	344.327017557152	854.548054429907	406.694156354794	337.569849980394	757.127147956167	298.121887607880	288.118875628632	790.824252104904	187.165601787277	368.673995935866	989.324805296939	429.684867296352	563.336076447251	917.894835769926	327.326989213858	628.997514561575	975.452897761475	230.395584889989	582.119568248257	857.100093997699	53.798394877888	558.890182536529	1027.473171789212	114.997304691596	600.187226607250	942.227258997939	43.753955344717	631.732118191421	1148.213777221785	67.463372331550	622.570950747049	649.124811328341	38.870593216238	413.892434253886	723.952945946064	35.444424226285	334.296252891141	808.548235690934	95.104881564995	361.876329884259	936.390029982226	40.032737416289	334.772854506073	1070.452194660621	1161.391169074631	105.302704523358	1323.304831602236	1126.048969813583	154.534484704988	672.403716682859	1135.532132200897	670.831914916191	623.391812296616	878.319357495862	673.497341909609	
20	34.349500000000	679.673699443890	1012.016639387474	402.811283691141	932.835846001314	1438.056906985838	285.515204750714	982.573285540654	1356.655870879331	463.164695860784	861.022389827637	1432.453383603757	612.220599218396	873.397037358061	1492.758884626223	436.892874186361	881.140612783135	938.883220848484	563.123919594798	919.456333057621	959.266642851547	291.045391336413	950.973996627507	762.289743221594	540.418822853519	894.482465076273	643.887252589623	608.360703505257	985.799452154419	600.608801195736	534.844308663596	1012.385780111229	516.069616588552	554.551710820629	929.401396329304	732.990971795713	324.249967304064	829.707400129347	625.452890367076	259.658573119575	894.077697012675	542.042369647703	333.697612110886	882.952145695978	474.318188074412	345.303222253910	850.065501600339	406.046651285371	338.316351763622	752.038508923878	298.126726000133	288.583226610706	785.148265520942	186.827519662801	368.918179209265	987.523062360082	428.204426796862	565.471807713151	920.359275185550	322.619893703463	631.133100739425	981.913117340273	227.967203004276	583.782368495803	870.116576620034	47.787378301272	560.626447174649	1039.109977142304	113.448559116416	600.975877669911	955.953405345729	39.891768403141	632.899338307026	1161.324261576157	68.961985462925	622.337518995753	642.919755708786	38.798489256903	413.873112143650	717.729764384888	35.398338375093	334.306603881220	802.314059087401	95.049440395391	361.944614739811	930.156750184807	39.978223404248	334.806370265835	1075.346460470264	1163.669935974869	109.108498143129	1328.975477967297	1136.604297086350	159.419272965589	672.071194258958	1133.632015198110	672.266054667441	623.837945762900	876.183831211208	674.573467161088	
21	34.370000000000	680.397251166928	1010.650268276374	404.853555555000	932.831730001745	1437.123743070423	289.368069538451	982.060011377769	1355.717591412549	467.213502086310	859.728172125355	1431.344264719610	615.755081983542	872.710342282776	1491.714293679699	440.496150120466	880.877962849050	937.213847160646	566.006213399043	920.630658537712	958.417896097467	294.174887288974	949.394024582372	759.206443827923	544.496036356733	889.985485905826	640.790215372541	610.694577195696	982.244728118214	597.656552714147	538.311844420345	1007.719521925435	514.644073802578	556.510081918494	928.864835060795	731.784196158235	326.885382781689	828.076140442481	625.225095938124	261.276989950342	891.072453103815	540.985410101505	335.124894313380	879.142891850522	473.351572426744	346.463826815967	845.955925087746	405.342999985265	339.248934754489	747.182587800617	298.220248000636	289.173479354253	779.591496949756	186.491236017933	369.202828519725	985.757427998447	426.383842515690	567.097081242477	921.779725808485	318.548711114443	632.563515644719	986.084558410829	225.742573837774	584.682792787235	878.898891182936	43.831535739311	561.444488344046	1046.884665320748	111.912424232420	600.864144757435	965.081097825949	37.401352950899	633.319703764419	1169.834458209750	69.235208227022	621.593568581924	636.701041460337	38.779133752306	413.837000837648	711.512056192689	35.378520539123	334.313755375789	796.085849569337	95.017003208766	362.007517788798	923.919302572869	39.911636565302	334.837021978849	1079.626501422974	1165.705079208836	113.282169205648	1333.770844091316	1146.158972332549	164.344957311891	672.700690492162	1131.046428204645	674.322116222790	625.497089525859	873.313222675841	676.316888505568	
